<svg version="1.1" id="Banner" xmlns="http://www.w3.org/2000/svg" xmlns:xlink="http://www.w3.org/1999/xlink" x="0px" y="0px"
	 viewBox="0 0 1260 800"  xml:space="preserve" width='100%' height='100%' preserveAspectRatio="xMidYMid slice">
<g id="Confetti">
</g>
<g>
	<rect x="-2.194" y="-3.869" opacity="1" fill="#49505E" width="1268.109" height="806.877"/>
	<circle fill="none" cx="489.699" cy="390.763" r="144.775"/>
	<path fill="none" d="M745.769,558.451c0.411-0.226,0.854-0.471,1.249-0.686c4.103-2.241,7.273-3.929,9.408-5.051
		c1.067-0.561,1.876-0.981,2.413-1.258c0.537-0.278,0.781-0.401,0.781-0.401c4.721-2.394,6.628-8.138,4.276-12.88
		c-2.353-4.742-8.08-6.699-12.843-4.388c-89.744,43.553-164.201,61.05-225.782,61.044c-69.057-0.05-122.115-21.791-163.846-54.498
		c-31.267-24.55-56.071-55.412-75.641-88.043c-29.362-48.929-46.864-101.78-56.92-142.312c-5.033-20.265-8.216-37.447-10.134-49.518
		c-0.959-6.036-1.602-10.793-2.003-14.02c-0.201-1.614-0.341-2.844-0.43-3.661l-0.096-0.909l-0.026-0.265
		c-0.485-5.125-4.908-8.963-10.05-8.72c-5.142,0.242-9.184,4.48-9.184,9.628v564.291h227.033
		C543.599,685.85,699.343,586.833,745.769,558.451z"/>
	<circle fill="none" cx="489.699" cy="390.763" r="144.775"/>
	<circle fill="none" cx="489.699" cy="390.763" r="144.775"/>
	<path opacity="0.05" fill="#FFFFFF" d="M1075.999,486.28L412.681-13.211H-12.75v820.014h209.69V242.512
		c0-5.148,4.042-9.385,9.184-9.628c5.142-0.243,9.565,3.595,10.05,8.72l0.026,0.265l0.096,0.909c0.089,0.816,0.229,2.047,0.43,3.661
		c0.401,3.227,1.044,7.984,2.003,14.02c1.918,12.071,5.1,29.253,10.134,49.518c10.056,40.531,27.559,93.382,56.92,142.312
		c19.57,32.632,44.374,63.494,75.641,88.043c41.731,32.708,94.79,54.449,163.846,54.498c61.581,0.006,136.039-17.491,225.782-61.044
		c4.763-2.311,10.49-0.354,12.843,4.388c2.353,4.742,0.445,10.486-4.276,12.88c0,0-0.244,0.124-0.781,0.401
		c-0.537,0.277-1.345,0.697-2.413,1.258c-2.135,1.123-5.306,2.81-9.408,5.051c-0.394,0.215-0.837,0.46-1.249,0.686
		c-46.426,28.382-202.17,127.399-321.796,248.352h221.531l430.498-256.408C1105.607,532.762,1105.605,503.91,1075.999,486.28z
		 M489.699,535.538c-79.958,0-144.776-64.818-144.776-144.775s64.818-144.775,144.776-144.775
		c79.957,0,144.775,64.818,144.775,144.775S569.656,535.538,489.699,535.538z"/>
</g>
<g>
  <defs>
    <radialGradient id="grad1" color="#000000">
      <stop offset="0%" style="stop-color:rgb(255,255,255);stop-opacity:.25" />
      <stop offset="100%" style="stop-color:rgb(0,0,0);stop-opacity:.50" />
    </radialGradient>
  </defs>
  <rect x="0" y="0" width="100%" height="100%" fill="url(#grad1)" />
  
  </g>
<path fill="none" d="M522.299,313.921c-2.616-1.106-5.305-2.071-8.05-2.906v37.788h-50v-37.149
	c-7.159,2.381-13.885,5.708-20.033,9.857c-13.15,8.881-23.608,21.48-29.849,36.242c-4.162,9.845-6.464,20.645-6.466,32.05
	c0.005,17.098,5.176,32.875,14.056,46.033c8.881,13.149,21.48,23.608,36.242,29.849c9.845,4.162,20.645,6.464,32.05,6.466
	c17.098-0.005,32.875-5.176,46.033-14.057c13.149-8.881,23.608-21.48,29.849-36.242c4.162-9.845,6.464-20.645,6.466-32.05
	c-0.005-17.098-5.176-32.875-14.057-46.033C549.66,330.621,537.061,320.162,522.299,313.921z"/>

</svg>
